<svg xmlns="http://www.w3.org/2000/svg" width="900" height="520">
<rect width="100%" height="100%" fill="white"/>
<text x="450.0" y="28" text-anchor="middle" font-size="20">Maišos skaičiavimo sparta</text>
<line x1="90" y1="55" x2="90" y2="445" stroke="black"/>
<line x1="90" y1="445" x2="870" y2="445" stroke="black"/>
<polyline points="90.0,387.7 90.4,395.1 91.1,400.1 92.7,401.8 95.7,398.9 101.8,397.0 114.0,394.2 138.4,383.7 187.2,363.4 284.7,325.8 479.8,246.3 870.0,90.5 870.0,90.5" fill="none" stroke="#2457a6" stroke-width="2"/>
<circle cx="90.0" cy="387.7" r="4" fill="#2457a6"/><circle cx="90.4" cy="395.1" r="4" fill="#2457a6"/><circle cx="91.1" cy="400.1" r="4" fill="#2457a6"/><circle cx="92.7" cy="401.8" r="4" fill="#2457a6"/><circle cx="95.7" cy="398.9" r="4" fill="#2457a6"/><circle cx="101.8" cy="397.0" r="4" fill="#2457a6"/><circle cx="114.0" cy="394.2" r="4" fill="#2457a6"/><circle cx="138.4" cy="383.7" r="4" fill="#2457a6"/><circle cx="187.2" cy="363.4" r="4" fill="#2457a6"/><circle cx="284.7" cy="325.8" r="4" fill="#2457a6"/><circle cx="479.8" cy="246.3" r="4" fill="#2457a6"/><circle cx="870.0" cy="90.5" r="4" fill="#2457a6"/><circle cx="870.0" cy="90.5" r="4" fill="#2457a6"/>
<text x="450.0" y="500" text-anchor="middle">Įvesties dydis baitais</text>
<text x="20" y="260.0" text-anchor="middle" transform="rotate(-90 20 260.0)">Laikas vienai maišai (µs)</text>
</svg>
